<mxfile host="app.diagrams.net" agent="Mozilla/5.0 (Macintosh; Intel Mac OS X 10_15_7) AppleWebKit/537.36 (KHTML, like Gecko) Chrome/126.0.0.0 YaBrowser/24.7.0.0 Safari/537.36" version="24.8.1">
  <diagram id="b51ca4ac-9056-8219-747a-da746b8c7672" name="Page-1">
    <mxGraphModel grid="0" page="0" gridSize="10" guides="1" tooltips="1" connect="1" arrows="1" fold="1" pageScale="1" pageWidth="827" pageHeight="1169" background="#ffffff" math="0" shadow="0">
      <root>
        <mxCell id="0" />
        <mxCell id="1" parent="0" />
        <mxCell id="40d4dfce8750839b-10" value="" style="endArrow=none;html=1;strokeColor=#c6c6c6;strokeWidth=2;" edge="1" parent="1">
          <mxGeometry width="50" height="50" relative="1" as="geometry">
            <mxPoint x="1871" y="160.99999999999955" as="sourcePoint" />
            <mxPoint x="1871" y="-223" as="targetPoint" />
          </mxGeometry>
        </mxCell>
        <mxCell id="40d4dfce8750839b-21" value="" style="endArrow=none;html=1;strokeColor=#c6c6c6;strokeWidth=2;" edge="1" parent="1">
          <mxGeometry width="50" height="50" relative="1" as="geometry">
            <mxPoint x="2352.000000000001" y="165.99999999999955" as="sourcePoint" />
            <mxPoint x="2352.000000000001" y="-218" as="targetPoint" />
          </mxGeometry>
        </mxCell>
        <mxCell id="40d4dfce8750839b-35" value="" style="endArrow=none;html=1;strokeColor=#c6c6c6;strokeWidth=2;" edge="1" parent="1">
          <mxGeometry width="50" height="50" relative="1" as="geometry">
            <mxPoint x="1432" y="185.99999999999955" as="sourcePoint" />
            <mxPoint x="2826.000000000001" y="185.99999999999955" as="targetPoint" />
          </mxGeometry>
        </mxCell>
        <mxCell id="40d4dfce8750839b-40" value="" style="endArrow=none;html=1;strokeColor=#c6c6c6;strokeWidth=2;" edge="1" parent="1">
          <mxGeometry width="50" height="50" relative="1" as="geometry">
            <mxPoint x="1873" y="595" as="sourcePoint" />
            <mxPoint x="1873" y="210.99999999999955" as="targetPoint" />
          </mxGeometry>
        </mxCell>
        <mxCell id="40d4dfce8750839b-44" value="" style="endArrow=none;html=1;strokeColor=#c6c6c6;strokeWidth=2;" edge="1" parent="1">
          <mxGeometry width="50" height="50" relative="1" as="geometry">
            <mxPoint x="2353.000000000001" y="581" as="sourcePoint" />
            <mxPoint x="2353.000000000001" y="196.99999999999955" as="targetPoint" />
          </mxGeometry>
        </mxCell>
        <mxCell id="40d4dfce8750839b-54" value="" style="endArrow=none;html=1;strokeColor=#c6c6c6;strokeWidth=2;" edge="1" parent="1">
          <mxGeometry width="50" height="50" relative="1" as="geometry">
            <mxPoint x="1432" y="-248" as="sourcePoint" />
            <mxPoint x="2826.000000000001" y="-248" as="targetPoint" />
          </mxGeometry>
        </mxCell>
        <mxCell id="40d4dfce8750839b-72" value="&lt;div style=&quot;text-align: left&quot;&gt;&lt;span style=&quot;font-size: 30px&quot;&gt;&lt;font color=&quot;#646363&quot;&gt;JOBS TO BE DONE&lt;/font&gt;&lt;/span&gt;&lt;/div&gt;" style="text;html=1;strokeColor=none;fillColor=none;align=right;verticalAlign=middle;whiteSpace=wrap;rounded=0;strokeWidth=60;fontStyle=1" vertex="1" parent="1">
          <mxGeometry x="1007" y="177" width="340" height="20" as="geometry" />
        </mxCell>
        <mxCell id="9weRFE-r5tO2uLE9Ns_Z-1" value="" style="endArrow=none;html=1;strokeColor=#c6c6c6;strokeWidth=2;" edge="1" parent="1">
          <mxGeometry width="50" height="50" relative="1" as="geometry">
            <mxPoint x="1412" y="617.9999999999995" as="sourcePoint" />
            <mxPoint x="2806.000000000001" y="617.9999999999995" as="targetPoint" />
          </mxGeometry>
        </mxCell>
        <mxCell id="9weRFE-r5tO2uLE9Ns_Z-2" value="&lt;p style=&quot;&quot;&gt;&lt;span style=&quot;font-size: 36px;&quot;&gt;Restoring after bad commit&lt;/span&gt;&lt;br&gt;&lt;/p&gt;" style="rounded=0;whiteSpace=wrap;html=1;strokeColor=none;strokeWidth=3;fillColor=#9C96C4;fontSize=12;fontColor=#333333;aspect=fixed;gradientColor=none;" vertex="1" parent="1">
          <mxGeometry x="1494" y="704.5" width="278" height="278" as="geometry" />
        </mxCell>
        <mxCell id="9weRFE-r5tO2uLE9Ns_Z-5" value="&lt;span style=&quot;font-size: 36px;&quot;&gt;Creating on-demand backups&lt;/span&gt;" style="rounded=0;whiteSpace=wrap;html=1;strokeColor=none;strokeWidth=3;fillColor=#82C4CC;fontSize=12;fontColor=#333333;aspect=fixed;" vertex="1" parent="1">
          <mxGeometry x="2458" y="250.5" width="280.5" height="280.5" as="geometry" />
        </mxCell>
        <mxCell id="9weRFE-r5tO2uLE9Ns_Z-6" value="&lt;span style=&quot;font-size: 36px;&quot;&gt;Creating automatic backups&lt;/span&gt;" style="rounded=0;whiteSpace=wrap;html=1;strokeColor=none;strokeWidth=3;fillColor=#82C4CC;fontSize=12;fontColor=#333333;aspect=fixed;" vertex="1" parent="1">
          <mxGeometry x="1982" y="253" width="278" height="278" as="geometry" />
        </mxCell>
        <mxCell id="9weRFE-r5tO2uLE9Ns_Z-7" value="&lt;span style=&quot;font-size: 36px;&quot;&gt;Restoring&lt;/span&gt;" style="rounded=0;whiteSpace=wrap;html=1;strokeColor=none;strokeWidth=3;fillColor=#82C4CC;fontSize=12;fontColor=#333333;aspect=fixed;" vertex="1" parent="1">
          <mxGeometry x="1491" y="254" width="281" height="281" as="geometry" />
        </mxCell>
        <mxCell id="9weRFE-r5tO2uLE9Ns_Z-8" value="&lt;span style=&quot;font-size: 36px;&quot;&gt;Regular backup creation&lt;/span&gt;" style="rounded=0;whiteSpace=wrap;html=1;strokeColor=none;strokeWidth=3;fillColor=#F9B55C;fontSize=12;fontColor=#333333;" vertex="1" parent="1">
          <mxGeometry x="1988" y="-140" width="250" height="236" as="geometry" />
        </mxCell>
        <mxCell id="9weRFE-r5tO2uLE9Ns_Z-9" value="&lt;span style=&quot;font-size: 36px;&quot;&gt;Restore to old binaries&lt;/span&gt;" style="rounded=0;whiteSpace=wrap;html=1;strokeColor=none;strokeWidth=3;fillColor=#F9B55C;fontSize=12;fontColor=#333333;" vertex="1" parent="1">
          <mxGeometry x="1492.25" y="-149" width="278.5" height="254" as="geometry" />
        </mxCell>
        <mxCell id="9weRFE-r5tO2uLE9Ns_Z-10" value="&lt;span style=&quot;font-size: 36px;&quot;&gt;Non-regular backup creation&lt;/span&gt;" style="rounded=0;whiteSpace=wrap;html=1;strokeColor=none;strokeWidth=3;fillColor=#F9B55C;fontSize=12;fontColor=#333333;" vertex="1" parent="1">
          <mxGeometry x="2458" y="-140" width="250" height="236" as="geometry" />
        </mxCell>
        <mxCell id="9weRFE-r5tO2uLE9Ns_Z-12" value="" style="endArrow=none;html=1;strokeColor=#c6c6c6;strokeWidth=2;" edge="1" parent="1">
          <mxGeometry width="50" height="50" relative="1" as="geometry">
            <mxPoint x="1873" y="-279.00000000000045" as="sourcePoint" />
            <mxPoint x="1873" y="-663" as="targetPoint" />
          </mxGeometry>
        </mxCell>
        <mxCell id="9weRFE-r5tO2uLE9Ns_Z-13" value="" style="endArrow=none;html=1;strokeColor=#c6c6c6;strokeWidth=2;" edge="1" parent="1">
          <mxGeometry width="50" height="50" relative="1" as="geometry">
            <mxPoint x="1871" y="1343" as="sourcePoint" />
            <mxPoint x="1871" y="640" as="targetPoint" />
          </mxGeometry>
        </mxCell>
        <mxCell id="9weRFE-r5tO2uLE9Ns_Z-14" value="" style="endArrow=none;html=1;strokeColor=#c6c6c6;strokeWidth=2;" edge="1" parent="1">
          <mxGeometry width="50" height="50" relative="1" as="geometry">
            <mxPoint x="2354" y="1336" as="sourcePoint" />
            <mxPoint x="2354" y="635" as="targetPoint" />
          </mxGeometry>
        </mxCell>
        <mxCell id="9weRFE-r5tO2uLE9Ns_Z-15" value="&lt;p style=&quot;line-height: 110%&quot;&gt;&lt;/p&gt;&lt;div style=&quot;text-align: right&quot;&gt;&lt;span style=&quot;font-size: 30px;&quot;&gt;&lt;b&gt;job stories&lt;/b&gt;&lt;/span&gt;&lt;/div&gt;&lt;p&gt;&lt;/p&gt;" style="text;html=1;strokeColor=none;fillColor=none;align=right;verticalAlign=top;whiteSpace=wrap;rounded=0;strokeWidth=60;spacingTop=-15;fontColor=#9C96C4;" vertex="1" parent="1">
          <mxGeometry x="1081" y="970" width="189" height="55" as="geometry" />
        </mxCell>
        <mxCell id="9weRFE-r5tO2uLE9Ns_Z-16" value="&lt;p style=&quot;line-height: 110%&quot;&gt;&lt;/p&gt;&lt;div style=&quot;text-align: right&quot;&gt;&lt;font color=&quot;#82c4cc&quot;&gt;&lt;span style=&quot;font-size: 30px;&quot;&gt;&lt;b&gt;product features&lt;/b&gt;&lt;/span&gt;&lt;/font&gt;&lt;/div&gt;&lt;p&gt;&lt;/p&gt;" style="text;html=1;strokeColor=none;fillColor=none;align=right;verticalAlign=top;whiteSpace=wrap;rounded=0;strokeWidth=60;spacingTop=-15;" vertex="1" parent="1">
          <mxGeometry x="1078" y="366" width="249" height="57" as="geometry" />
        </mxCell>
        <mxCell id="9weRFE-r5tO2uLE9Ns_Z-17" value="&lt;span style=&quot;font-size: 36px;&quot;&gt;Repair application&lt;/span&gt;" style="rounded=0;whiteSpace=wrap;html=1;strokeColor=none;strokeWidth=3;fillColor=#B9D36C;fontSize=12;fontColor=#333333;" vertex="1" parent="1">
          <mxGeometry x="1501.5" y="-573" width="260" height="246" as="geometry" />
        </mxCell>
        <mxCell id="9weRFE-r5tO2uLE9Ns_Z-18" value="&lt;p style=&quot;line-height: 110%&quot;&gt;&lt;/p&gt;&lt;div style=&quot;text-align: left&quot;&gt;&lt;font color=&quot;#f9b55c&quot;&gt;&lt;span style=&quot;font-size: 30px;&quot;&gt;&lt;b&gt;persona tasks&lt;/b&gt;&lt;/span&gt;&lt;/font&gt;&lt;/div&gt;&lt;p&gt;&lt;/p&gt;" style="text;html=1;strokeColor=none;fillColor=none;align=right;verticalAlign=top;whiteSpace=wrap;rounded=0;strokeWidth=60;spacingTop=-15;" vertex="1" parent="1">
          <mxGeometry x="1090" y="-48.120000000000005" width="225" height="52.25" as="geometry" />
        </mxCell>
        <mxCell id="9weRFE-r5tO2uLE9Ns_Z-20" value="&lt;div style=&quot;text-align: left&quot;&gt;&lt;span style=&quot;font-size: 30px&quot;&gt;&lt;font color=&quot;#b9d36c&quot;&gt;persona goal&lt;/font&gt;&lt;/span&gt;&lt;/div&gt;" style="text;html=1;strokeColor=none;fillColor=none;align=right;verticalAlign=middle;whiteSpace=wrap;rounded=0;strokeWidth=60;fontStyle=1" vertex="1" parent="1">
          <mxGeometry x="1117.5" y="-497.75" width="209.5" height="90.5" as="geometry" />
        </mxCell>
        <mxCell id="9weRFE-r5tO2uLE9Ns_Z-28" value="&lt;span style=&quot;font-size: 36px;&quot;&gt;Preemptive backup creation&lt;/span&gt;" style="rounded=0;whiteSpace=wrap;html=1;strokeColor=none;strokeWidth=3;fillColor=#B9D36C;fontSize=12;fontColor=#333333;" vertex="1" parent="1">
          <mxGeometry x="2222" y="-568.5" width="249" height="237" as="geometry" />
        </mxCell>
        <mxCell id="9weRFE-r5tO2uLE9Ns_Z-40" style="edgeStyle=orthogonalEdgeStyle;rounded=0;orthogonalLoop=1;jettySize=auto;html=1;exitX=0.5;exitY=1;exitDx=0;exitDy=0;" edge="1" parent="1" source="9weRFE-r5tO2uLE9Ns_Z-15" target="9weRFE-r5tO2uLE9Ns_Z-15">
          <mxGeometry relative="1" as="geometry" />
        </mxCell>
        <mxCell id="MFDk8UQHbfPtwjIw-j23-6" value="&lt;p style=&quot;&quot;&gt;&lt;span style=&quot;font-size: 36px;&quot;&gt;Having a prepared backup&lt;/span&gt;&lt;br&gt;&lt;/p&gt;" style="rounded=0;whiteSpace=wrap;html=1;strokeColor=none;strokeWidth=3;fillColor=#9C96C4;fontSize=12;fontColor=#333333;aspect=fixed;gradientColor=none;" vertex="1" parent="1">
          <mxGeometry x="1982" y="704.5" width="278" height="278" as="geometry" />
        </mxCell>
        <mxCell id="MFDk8UQHbfPtwjIw-j23-7" value="&lt;p style=&quot;&quot;&gt;&lt;span style=&quot;font-size: 36px;&quot;&gt;Creating backups when needed&lt;/span&gt;&lt;br&gt;&lt;/p&gt;" style="rounded=0;whiteSpace=wrap;html=1;strokeColor=none;strokeWidth=3;fillColor=#9C96C4;fontSize=12;fontColor=#333333;aspect=fixed;gradientColor=none;" vertex="1" parent="1">
          <mxGeometry x="2444" y="704.5" width="278" height="278" as="geometry" />
        </mxCell>
        <mxCell id="MFDk8UQHbfPtwjIw-j23-8" value="&lt;p style=&quot;&quot;&gt;&lt;span style=&quot;font-size: 36px;&quot;&gt;Restoring after k8s change&lt;/span&gt;&lt;br&gt;&lt;/p&gt;" style="rounded=0;whiteSpace=wrap;html=1;strokeColor=none;strokeWidth=3;fillColor=#9C96C4;fontSize=12;fontColor=#333333;aspect=fixed;gradientColor=none;" vertex="1" parent="1">
          <mxGeometry x="1494" y="1036.5" width="278" height="278" as="geometry" />
        </mxCell>
        <mxCell id="MFDk8UQHbfPtwjIw-j23-9" value="&lt;p style=&quot;&quot;&gt;&lt;span style=&quot;font-size: 36px;&quot;&gt;Having others&#39; backups&lt;/span&gt;&lt;br&gt;&lt;/p&gt;" style="rounded=0;whiteSpace=wrap;html=1;strokeColor=none;strokeWidth=3;fillColor=#9C96C4;fontSize=12;fontColor=#333333;aspect=fixed;gradientColor=none;" vertex="1" parent="1">
          <mxGeometry x="1974" y="1036.5" width="278" height="278" as="geometry" />
        </mxCell>
        <mxCell id="MFDk8UQHbfPtwjIw-j23-10" value="&lt;p style=&quot;&quot;&gt;&lt;span style=&quot;font-size: 36px;&quot;&gt;Creating backups in others&#39; services&lt;/span&gt;&lt;br&gt;&lt;/p&gt;" style="rounded=0;whiteSpace=wrap;html=1;strokeColor=none;strokeWidth=3;fillColor=#9C96C4;fontSize=12;fontColor=#333333;aspect=fixed;gradientColor=none;" vertex="1" parent="1">
          <mxGeometry x="2444" y="1036.5" width="278" height="278" as="geometry" />
        </mxCell>
      </root>
    </mxGraphModel>
  </diagram>
</mxfile>
